<?xml version="1.0" encoding="UTF-8" standalone="no"?> <svg xmlns="http://www.w3.org/2000/svg" xmlns:xlink="http://www.w3.org/1999/xlink" xmlns:sketch="http://www.bohemiancoding.com/sketch/ns" width="60px" height="56px" viewBox="0 0 60 56"><!-- Generator: Sketch 3.4 (15575) - http://www.bohemiancoding.com/sketch --><title>tubes-1</title><desc>Created with Sketch.</desc><defs></defs><g id="Science" stroke="none" stroke-width="1" fill="none" fill-rule="evenodd" sketch:type="MSPage"><g id="Icon-1" sketch:type="MSArtboardGroup" transform="translate(0.000000, -4.000000)" fill="#4a4a49"><path d="M28.998,35.5 C28.998,36.327 29.671,37 30.498,37 C31.325,37 31.998,36.327 31.998,35.5 C31.998,34.673 31.325,34 30.498,34 C29.671,34 28.998,34.673 28.998,35.5 M52.498,21 C53.325,21 53.998,20.327 53.998,19.5 C53.998,18.673 53.325,18 52.498,18 C51.671,18 50.998,18.673 50.998,19.5 C50.998,20.327 51.671,21 52.498,21 M47.998,26 C47.998,27.103 48.895,28 49.998,28 C51.101,28 51.998,27.103 51.998,26 C51.998,24.897 51.101,24 49.998,24 C48.895,24 47.998,24.897 47.998,26 M23.998,39 C23.998,38.449 23.549,38 22.998,38 C22.447,38 21.998,38.449 21.998,39 C21.998,39.551 22.447,40 22.998,40 C23.549,40 23.998,39.551 23.998,39 M25.998,39 C25.998,40.654 24.652,42 22.998,42 C21.344,42 19.998,40.654 19.998,39 C19.998,37.346 21.344,36 22.998,36 C24.652,36 25.998,37.346 25.998,39 M28.998,27 C28.998,25.897 28.101,25 26.998,25 C25.894,25 24.998,25.897 24.998,27 C24.998,28.103 25.894,29 26.998,29 C28.101,29 28.998,28.103 28.998,27 M19.998,10 L29.01,10 C29.562,10 30.01,9.552 30.01,9 C30.01,8.448 29.562,8 29.01,8 L19.998,8 L19.998,6 L34.01,6 L34.01,8 L33.01,8 C32.458,8 32.01,8.448 32.01,9 L32.01,27 C32.01,29.771 33.13,31.483 33.189,31.571 L40.177,41.624 C40.371,41.903 40.683,42.053 40.999,42.053 C41.196,42.053 41.395,41.995 41.569,41.874 C42.022,41.559 42.134,40.936 41.819,40.482 L34.842,30.445 C34.834,30.433 34.01,29.137 34.01,27 L34.01,10 C35.113,10 36.01,9.103 36.01,8 L36.01,6 C36.01,4.897 35.113,4 34.01,4 L19.998,4 C18.894,4 17.998,4.897 17.998,6 L17.998,8 C17.998,9.103 18.894,10 19.998,10 M42.998,58 L3.998,58 C3.445,58 2.467,57.903 2.128,57.254 C1.812,56.649 2.07,55.646 2.785,54.616 L7.889,48.094 C9.248,48.341 12.749,48.895 16.877,48.895 C19.542,48.895 22.467,48.664 25.241,47.97 C32.891,46.06 40.678,47.952 40.756,47.97 C41.29,48.1 41.833,47.777 41.968,47.242 C42.102,46.706 41.776,46.164 41.241,46.03 C40.903,45.945 32.903,43.992 24.755,46.03 C18.976,47.475 12.288,46.75 9.295,46.295 L20.835,31.547 C20.882,31.474 21.998,29.735 21.998,27 L21.998,13 C21.998,12.448 21.55,12 20.998,12 C20.445,12 19.998,12.448 19.998,13 L19.998,27 C19.998,29.062 19.202,30.386 19.208,30.386 L1.177,53.429 C-0.023,55.153 -0.321,56.885 0.355,58.18 C0.711,58.86 1.656,60 3.998,60 L42.998,60 C43.55,60 43.998,59.552 43.998,59 C43.998,58.448 43.55,58 42.998,58 M60.01,10 L60.01,12 C60.01,13.103 59.113,14 58.01,14 L58.01,53 C58.01,53.049 58,53.145 57.99,53.217 C57.874,56.964 54.753,60 50.998,60 C47.142,60 44.001,56.862 43.998,53.006 L43.998,53.009 L43.998,17 L45.998,17 L45.998,32.193 C49.45,32.837 52.721,32.039 52.755,32.03 C53.292,31.896 53.834,32.222 53.968,32.757 C54.102,33.293 53.776,33.836 53.241,33.97 C53.126,33.999 51.295,34.446 48.858,34.446 C47.968,34.446 46.996,34.381 45.998,34.22 L45.998,53.001 C46,55.759 48.244,58 50.998,58 C53.698,58 55.938,55.802 55.992,53.101 C55.993,53.055 55.998,53.009 56.004,52.964 C56.007,52.949 56.009,52.943 56.01,52.943 L56.01,52.945 L56.01,13 C56.01,12.448 56.458,12 57.01,12 L58.01,12 L58.01,10 L43.998,10 L43.998,12 L53.01,12 C53.562,12 54.01,12.448 54.01,13 C54.01,13.552 53.562,14 53.01,14 L43.998,14 C42.894,14 41.998,13.103 41.998,12 L41.998,10 C41.998,8.897 42.894,8 43.998,8 L58.01,8 C59.113,8 60.01,8.897 60.01,10" id="tubes-1" sketch:type="MSShapeGroup"></path></g></g></svg> 