<?xml version="1.0" encoding="UTF-8"?> <svg xmlns="http://www.w3.org/2000/svg" width="128" height="128" viewBox="0 0 128 128"><metadata><?xpacket begin="﻿" id="W5M0MpCehiHzreSzNTczkc9d"?><?xpacket end="w"?></metadata><defs><style> .cls-1 { fill: #4a4a49; fill-rule: evenodd; } </style></defs><path id="Symbol_-_Pill" data-name="Symbol - Pill" class="cls-1" d="M912.732,829.465a2.129,2.129,0,0,0-2.72,1.3A21.4,21.4,0,0,0,910.1,845.2a2.133,2.133,0,1,0,4.006-1.465,17.17,17.17,0,0,1-.07-11.552,2.133,2.133,0,0,0-1.3-2.721M989.867,744a34.1,34.1,0,0,0-24.16,9.974l-23.975,23.993a2.133,2.133,0,1,0,3.019,3.015L968.719,757a29.88,29.88,0,1,1,42.261,42.252,0.037,0.037,0,0,1-.02.022c-0.55.558-22.343,22.342-28.336,28.332l-43.74-43.771a2.132,2.132,0,0,0-3.018,0l-28.589,28.612c-0.463.465-.9,0.9-1.242,1.324L906,813.732a34.127,34.127,0,1,0,48.484,48.039L978.266,838a2.134,2.134,0,0,0-3.017-3.019l-23.8,23.787a29.86,29.86,0,1,1-42.437-42.018l0.032-.034c0.576-.583,17.959-17.981,28.329-28.357l43.782,43.817h0a2.132,2.132,0,0,0,3.017,0,2.181,2.181,0,0,0,.318-0.4l28.227-28.216c0.46-.467.9-0.9,1.24-1.325l0.04,0.039A34.13,34.13,0,0,0,989.867,744m9.657,20.058a2.133,2.133,0,0,1,2.416-3.515,21.338,21.338,0,0,1,9.26,17.589,2.135,2.135,0,0,1-4.27,0,17.083,17.083,0,0,0-7.406-14.074" transform="translate(-896 -744)"></path></svg> 