<?xml version="1.0" encoding="UTF-8"?> <svg xmlns="http://www.w3.org/2000/svg" width="127.97" height="127.969" viewBox="0 0 127.97 127.969"><metadata><?xpacket begin="﻿" id="W5M0MpCehiHzreSzNTczkc9d"?><?xpacket end="w"?></metadata><defs><style> .cls-1 { fill: #4a4a49; fill-rule: evenodd; } </style></defs><path class="cls-1" d="M1386.6,809.917c-3.33.128-6.89,0.194-10.58,0.194-13.86,0-22.28-.92-26.35-1.533l11.86-18.651a2.129,2.129,0,1,0-3.59-2.291l-13.58,21.329a2.134,2.134,0,0,0,1.29,3.216c0.35,0.089,9.03,2.2,30.37,2.2,3.74,0,7.36-.066,10.75-0.2A2.133,2.133,0,0,0,1386.6,809.917Zm-33.91-28.945a2.127,2.127,0,0,0,1.33,1.3c0.27,0.092,6.9,2.242,22,2.242,1.53,0,2.97-.02,4.33-0.063a2.132,2.132,0,1,0-.13-4.263q-1.98.06-4.2,0.06a97.017,97.017,0,0,1-17.94-1.39l19.75-31.606a2.134,2.134,0,0,0-3.62-2.26l-21.32,34.127A2.092,2.092,0,0,0,1352.69,780.972ZM1335.5,867.7h-21.33a2.133,2.133,0,0,0,0,4.265h21.33A2.133,2.133,0,0,0,1335.5,867.7Zm49.05,0h-12.8v-21.37c1.39,0.022,2.79.041,4.27,0.041a2.134,2.134,0,0,0,0-4.267c-19.4,0-30.36-2.132-34.97-3.326l13.1-18.922a2.134,2.134,0,0,0-3.51-2.428l-14.76,21.33a2.12,2.12,0,0,0-.29,1.828,2.152,2.152,0,0,0,1.25,1.366c0.4,0.161,9.13,3.529,30.65,4.269V867.7h-6.4v-16a2.13,2.13,0,1,0-4.26,0v16h-8.53V850.637a2.138,2.138,0,0,0-2.05-2.131,184.045,184.045,0,0,1-28.52-3.533l17.85-25.784a2.128,2.128,0,0,0-1.58-3.34c-3.43-.28-6.01-0.607-7.79-0.876l16.27-25.573a2.132,2.132,0,0,0-1.59-3.268c-2.69-.268-4.78-0.6-6.27-0.885l17.96-28.724,3.6,5.674a2.133,2.133,0,0,0,3.6-2.287l-5.42-8.532a2.13,2.13,0,0,0-1.8-.989h-0.01a2.136,2.136,0,0,0-1.8,1l-21.32,34.128a2.125,2.125,0,0,0,1.16,3.165,44.836,44.836,0,0,0,6.47,1.287l-16.16,25.394a2.125,2.125,0,0,0-.17,1.944,2.1,2.1,0,0,0,1.48,1.275,67.431,67.431,0,0,0,7.79,1.172l-17.58,25.4a2.135,2.135,0,0,0,1.24,3.285,179.754,179.754,0,0,0,30.37,4.23V867.7h-2.13a2.133,2.133,0,1,0,0,4.265h42.65A2.133,2.133,0,0,0,1384.55,867.7Zm53.67-104.544a2.129,2.129,0,0,0,1.78-2.1v-8.532a2.129,2.129,0,0,0-2.13-2.132h-51.19a2.133,2.133,0,0,0,0,4.266h49.05v4.591l-36.6,6.1a2.13,2.13,0,0,0-1.78,2.1V854.9a2.128,2.128,0,0,0,1.67,2.082l36.71,8.16V867.7h-44.78a2.133,2.133,0,0,0,0,4.265h46.92a2.129,2.129,0,0,0,2.13-2.132v-6.4a2.128,2.128,0,0,0-1.67-2.082l-36.72-8.16V769.26Z" transform="translate(-1312.03 -744)"></path></svg> 