<?xml version="1.0" encoding="UTF-8"?> <svg xmlns="http://www.w3.org/2000/svg" width="128" height="128" viewBox="0 0 128 128"><metadata><?xpacket begin="﻿" id="W5M0MpCehiHzreSzNTczkc9d"?><?xpacket end="w"?></metadata><defs><style> .cls-1 { fill: #4a4a49; fill-rule: evenodd; } </style></defs><path id="Symbol_-_Beverage_Carton" data-name="Symbol - Beverage Carton" class="cls-1" d="M499.2,816.533a2.133,2.133,0,1,0,0,4.266h17.066a2.133,2.133,0,1,0,0-4.266H499.2Zm23.466-6.4A2.134,2.134,0,0,0,520.532,808H499.2a2.133,2.133,0,1,0,0,4.266h21.333a2.132,2.132,0,0,0,2.133-2.132h0Zm-23.466-6.4H512a2.133,2.133,0,0,0,0-4.266H499.2a2.133,2.133,0,0,0,0,4.266h0Zm108.225,0.679a2.129,2.129,0,0,0-1.56-.679H558.932a2.137,2.137,0,0,0-2.127,2.3l0.659,8.533a2.133,2.133,0,1,0,4.254-.329L561.235,808h42.338l-4.109,57.6a2.135,2.135,0,0,1-2.133,2.132H567.465a2.178,2.178,0,0,1-2.138-2.28l-2.8-40.386H595.2a2.134,2.134,0,0,0,0-4.268H560.243a2.137,2.137,0,0,0-2.129,2.281l2.951,42.521a6.408,6.408,0,0,0,6.4,6.4h29.866a6.368,6.368,0,0,0,6.393-6.248l4.267-59.735a2.116,2.116,0,0,0-.567-1.605h0ZM556.8,869.867A2.132,2.132,0,0,1,554.665,872H482.132A2.134,2.134,0,0,1,480,869.867v-89.6a1.729,1.729,0,0,1,.039-0.19,1.951,1.951,0,0,1,.085-0.418,2.02,2.02,0,0,1,.162-0.4,1.58,1.58,0,0,1,.073-0.18l16.708-25.062v-7.887A2.133,2.133,0,0,1,499.2,744h51.2a2.132,2.132,0,0,1,2.134,2.132v7.841l16.659,22.906a2.134,2.134,0,0,1,.407,1.253v19.2a2.134,2.134,0,1,1-4.267,0V778.827L549.312,756.8h-41.58a2.134,2.134,0,0,1,0-4.267h40.533v-4.267H501.332v6.4a2.144,2.144,0,0,1-.358,1.183L486.12,778.133h50.16l7.942-15.887a2.135,2.135,0,0,1,3.819,1.908l-6.991,13.979h17.882a2.134,2.134,0,0,1,0,4.267H484.266v52.535c6.383-1.875,21.416-5.138,25.427,4.224A22.313,22.313,0,0,0,529.065,852.8a2.133,2.133,0,1,1,0,4.266,26.322,26.322,0,0,1-23.293-16.226c-2.62-6.112-15.539-3.37-21.506-1.446v28.339h51.2V788.8a2.134,2.134,0,1,1,4.267,0v78.933h14.933a2.133,2.133,0,0,1,2.133,2.134h0Z" transform="translate(-480 -744)"></path></svg> 