<?xml version="1.0" encoding="UTF-8"?> <svg xmlns="http://www.w3.org/2000/svg" width="128" height="128" viewBox="0 0 128 128"><metadata><?xpacket begin="﻿" id="W5M0MpCehiHzreSzNTczkc9d"?><?xpacket end="w"?></metadata><defs><style> .cls-1 { fill: #ffffff; fill-rule: evenodd; } </style></defs><path id="Symbol_-_Car" data-name="Symbol - Car" class="cls-1" d="M580.244,1240.9a6.45,6.45,0,1,0,6.4,6.45,6.431,6.431,0,0,0-6.4-6.45h0Zm0,8.6a2.15,2.15,0,1,1,2.133-2.15,2.148,2.148,0,0,1-2.133,2.15h0Zm-72.521-8.6a6.45,6.45,0,1,0,6.4,6.45,6.431,6.431,0,0,0-6.4-6.45h0Zm0,8.6a2.15,2.15,0,1,1,2.134-2.15,2.148,2.148,0,0,1-2.134,2.15h0Zm-27.735-6.45v-21.5a6.43,6.43,0,0,1,6.4-6.45h40.537v-19.35a2.134,2.134,0,1,1,4.267,0v19.35h24.265l3.678-7.41a2.118,2.118,0,0,1,2.861-.96,2.152,2.152,0,0,1,.956,2.88l-2.725,5.49h7.216a2.15,2.15,0,0,1,0,4.3H531.661l3.755,18.93a2.147,2.147,0,0,1-1.672,2.53,2.014,2.014,0,0,1-.421.04,2.141,2.141,0,0,1-2.09-1.73l-3.924-19.77H486.388a2.148,2.148,0,0,0-2.133,2.15V1228h2.133a2.15,2.15,0,0,1,0,4.3h-2.133v10.75a2.148,2.148,0,0,0,2.133,2.15h1.1a2.15,2.15,0,0,1,0,4.3h-1.1a6.43,6.43,0,0,1-6.4-6.45h0Zm78.921,6.45a2.15,2.15,0,0,0,0-4.3H522.487a15.051,15.051,0,1,0,0,4.3h36.422Zm-51.186,8.6a10.75,10.75,0,1,1,10.668-10.75,10.719,10.719,0,0,1-10.668,10.75h0Zm-9.374-47.47a2.136,2.136,0,0,0,2.8-1.13l6.347-14.94c1.782-3.59,4.566-5.26,8.76-5.26h29.87c5.182,0,9.97,2.78,13.21,7.74l12.742,17.07c0.559,1.02,3.189,5.29,8.165,5.29h6.4c9.155,0,12.787,5.11,14.2,8.6h-3.533a2.15,2.15,0,0,0,0,4.3H601.9l1.752,10.89a1.487,1.487,0,0,1-.145,1.33,2.407,2.407,0,0,1-1.927.68h-6.571a15.051,15.051,0,1,0,0,4.3h6.571a6.439,6.439,0,0,0,5.306-2.35,5.6,5.6,0,0,0,.935-4.85l-2.015-12.57c-1.4-7.07-7.175-14.63-19.161-14.63h-6.4c-2.853,0-4.436-3.08-4.446-3.1a2.078,2.078,0,0,0-.21-0.34l-12.762-17.09c-3.911-5.99-10.154-9.57-16.7-9.57h-29.87c-5.828,0-10.061,2.57-12.628,7.75l-6.4,15.05a2.164,2.164,0,0,0,1.12,2.83h0Zm81.9,47.47a10.75,10.75,0,1,1,10.667-10.75,10.72,10.72,0,0,1-10.667,10.75h0Zm-38.384-34.4a2.15,2.15,0,0,1,0,4.3h-2.134a2.15,2.15,0,0,1,0-4.3h2.134Zm-27.736,45.15a2.141,2.141,0,0,1-2.134,2.15H482.121a2.15,2.15,0,0,1,0-4.3H511.99a2.141,2.141,0,0,1,2.134,2.15h0Zm34.136,0a2.139,2.139,0,0,1-2.133,2.15H524.791a2.15,2.15,0,0,1,0-4.3h21.336a2.139,2.139,0,0,1,2.133,2.15h0Zm59.739,0a2.139,2.139,0,0,1-2.134,2.15H571.729a2.15,2.15,0,0,1,0-4.3h34.136a2.139,2.139,0,0,1,2.134,2.15h0Zm-42.671,0A2.139,2.139,0,0,1,563.2,1271h-4.267a2.15,2.15,0,0,1,0-4.3H563.2a2.139,2.139,0,0,1,2.133,2.15h0Z" transform="translate(-480 -1164)"></path></svg> 