<?xml version="1.0" encoding="UTF-8"?> <svg xmlns="http://www.w3.org/2000/svg" width="128" height="128" viewBox="0 0 128 128"><metadata><?xpacket begin="﻿" id="W5M0MpCehiHzreSzNTczkc9d"?><?xpacket end="w"?></metadata><defs><style> .cls-1 { fill: #4a4a49; fill-rule: evenodd; } </style></defs><path id="Symbol_-_Package" data-name="Symbol - Package" class="cls-1" d="M977.067,1268.53a2.139,2.139,0,0,0,2.134,2.14h21.339a2.135,2.135,0,0,0,0-4.27H979.2a2.136,2.136,0,0,0-2.134,2.13h0Zm19.2-10.66H979.2a2.13,2.13,0,1,0,0,4.26h17.067a2.13,2.13,0,1,0,0-4.26h0Zm-8.533-25.6h-55.47a2.13,2.13,0,1,0,0,4.26h55.47a2.13,2.13,0,1,0,0-4.26h0Zm-14.311-24.98-8.532,8.53a2.134,2.134,0,1,0,3.017,3.02l4.892-4.89v11.92a2.133,2.133,0,0,0,4.266,0v-11.92l4.892,4.89a2.134,2.134,0,1,0,3.017-3.02l-8.532-8.53a2.313,2.313,0,0,0-.695-0.46,2.1,2.1,0,0,0-1.63,0,2.313,2.313,0,0,0-.7.46h0ZM945.066,1228a2.136,2.136,0,0,0,2.133-2.13v-11.92l4.892,4.89a2.134,2.134,0,1,0,3.017-3.02l-8.532-8.53a2.313,2.313,0,0,0-.7-0.46,2.1,2.1,0,0,0-1.63,0,2.33,2.33,0,0,0-.7.46l-8.531,8.53a2.134,2.134,0,0,0,3.017,3.02l4.891-4.89v11.92a2.136,2.136,0,0,0,2.134,2.13h0Zm-20.541,35.64,20.609,5.52a2.133,2.133,0,1,0,1.105-4.12l-20.609-5.53a2.138,2.138,0,0,0-1.105,4.13h0Zm2.208-8.25,20.609,5.52a2.133,2.133,0,1,0,1.105-4.12l-20.609-5.52a2.133,2.133,0,0,0-1.105,4.12h0Zm29-1.06-32.968-8.84-5.526,20.61,32.973,8.84Zm3.7-2.13a4.219,4.219,0,0,1,.421,3.24l-5.52,20.6a4.272,4.272,0,0,1-4.119,3.16,4.562,4.562,0,0,1-1.1-.14l-32.977-8.84a4.267,4.267,0,0,1-3.016-5.22l5.525-20.61a4.324,4.324,0,0,1,5.221-3.02l32.974,8.84a4.223,4.223,0,0,1,2.594,1.99h0Zm64.57-77.54v106.68a10.669,10.669,0,0,1-10.66,10.66H906.664A10.674,10.674,0,0,1,896,1281.34V1174.66A10.674,10.674,0,0,1,906.664,1164h64a2.13,2.13,0,0,1,2.134,2.13V1196a2.14,2.14,0,0,1-3.233,1.83L960,1192.09l-9.569,5.74A2.14,2.14,0,0,1,947.2,1196v-21.34a2.134,2.134,0,0,1,4.267,0v17.57l7.435-4.46a2.118,2.118,0,0,1,2.2,0l7.435,4.46v-23.97h-61.87a6.413,6.413,0,0,0-6.4,6.4v106.68a6.413,6.413,0,0,0,6.4,6.4H1013.34a6.419,6.419,0,0,0,6.4-6.4V1174.66a6.419,6.419,0,0,0-6.4-6.4H979.2a2.13,2.13,0,1,1,0-4.26h34.139a10.669,10.669,0,0,1,10.66,10.66h0Z" transform="translate(-896 -1164)"></path></svg> 