<?xml version="1.0" encoding="UTF-8"?> <!-- Generator: Adobe Illustrator 23.0.0, SVG Export Plug-In . SVG Version: 6.00 Build 0) --> <svg xmlns="http://www.w3.org/2000/svg" xmlns:xlink="http://www.w3.org/1999/xlink" id="Layer_1" x="0px" y="0px" viewBox="0 0 458.9 55.4" style="enable-background:new 0 0 458.9 55.4;" xml:space="preserve"> <style type="text/css"> .st0{fill-rule:evenodd;clip-rule:evenodd;fill:#003976;} </style> <g id="logo-blue"> <path id="logo" class="st0" d="M0,54.5V0.8h57.9v53.7H0z M45,22.9C60.6,20.7,49.8-4,29.7,11.3l0-2.8l1,0l-2.1-5.1l-2.1,5.1h1.1 l0,2.9C9.7-3.8-3.4,19.7,12.2,22.5c0,0,7.4,24.7,7.2,24.8c6.2-2.3,13.3-2.3,19,0.1L45,22.9z M37.2,51.3l0.9-2.7 c-5.2-2.1-12.4-2.5-18.2,0l0.7,2.8C25.1,49.3,32.5,48.8,37.2,51.3z M19.8,19.3c-7.7,3.2-11.6-0.4-11.7-4.2 C8,11.3,15.4,4.2,28.6,14.6c13.2-9.8,20.6-4,20.8,0.7c0.2,4.6-5.7,6.6-11.3,4.2c-0.1,0.8-0.2,2.1,4.4,3.5L37,44.1 c-3.7-1.7-11.3-1.7-16-0.2l-6-21.2C17.1,22.2,19.7,21.2,19.8,19.3z"></path> <path id="Combined-Shape" class="st0" d="M87.3,0.9h24c0.7,0,1.4,0,2.2,0c7.9,0,14.2,0.1,19.1,1.6c6.6,2,10.1,6.4,10.1,12.6 c0,4.8-3.4,8.5-8.6,10.8C141,27.9,145,32,145,38.4c0,6.4-3.3,11.2-9.3,13.7c-5.7,2.4-12.2,2.4-20.1,2.4H87.3V0.9z M116.7,42.6 c6.1,0,9.2-1.4,9.1-5.7c-0.1-3.7-3.2-4.9-9.3-4.9h-9.4v10.6H116.7z M115.6,22.3c5.3,0,7.7-1,7.8-4.6c0.1-4.8-3.1-5.6-10.6-5.6h-5.7 v10.2H115.6z M168.4,1h21.2l23.7,53.2h-20.4l-2.4-8.5h-23.1l-2.5,8.5h-19.9L168.4,1z M185.5,33.6l-6.8-18.5l-6.4,18.5H185.5z M217.1,0.9h19.4v20l20.3-20h25.5l-22.5,19.7l23.9,33.7h-23.9l-13.3-21.7l-10,8.2v13.5h-19.4V0.9z M289.5,1.1h52v11.4h-32.6v8.7h30 V32h-30v10h33.9v12.4h-53.3V1.1z M350.3,0.9h19.4v40.3h30.3v13.2h-49.7V0.9z M420.2,35.7c1.1,3.9,3.4,8.9,11.4,9 c4.9,0.1,9-2.1,9-5.6c0-3.6-5-4.9-12.5-6.5c-8.8-1.9-14.3-3.8-16.9-5.4c-4.9-2.9-7.2-7.1-7.3-10.5C403.7,6.6,413.3,0,430.1,0 c16.3,0,25.8,5.5,27,16.1l-18.7,0.4c-0.6-3.1-3.7-6.3-8.7-6.3c-4.3,0-7.6,1.7-7.6,4.1c0,2.8,4.4,3.6,10.5,4.9 c7.8,1.7,14,2.7,18.1,5c5.5,3.1,8.1,7.7,8.1,13.1c0,11.4-9.8,18-28.2,18c-16.9,0-27.4-7.5-28.6-18.7L420.2,35.7z"></path> </g> </svg> 