<?xml version="1.0" encoding="UTF-8"?> <!-- Generator: Adobe Illustrator 23.0.0, SVG Export Plug-In . SVG Version: 6.00 Build 0) --> <svg xmlns="http://www.w3.org/2000/svg" xmlns:xlink="http://www.w3.org/1999/xlink" id="Layer_1" x="0px" y="0px" viewBox="0 0 128.6 36" style="enable-background:new 0 0 128.6 36;" xml:space="preserve"> <style type="text/css"> .st0{fill-rule:evenodd;clip-rule:evenodd;fill:#C2271B;} .st1{fill:#C2271B;} </style> <path class="st0" d="M25.5,19.6c-1.8,0-3.2-1.4-3.2-3.2s1.4-3.2,3.2-3.2c1.8,0,3.2,1.4,3.2,3.1v8.3c0,4.3-2,3.8-6.3,3.8l-5.9,0V36 l9.6,0c6.3,0,10.2-4.9,10.2-10.1v-10C36.4,10,31,5.8,25.2,5.8c-5.8,0-10.5,5-10.5,10.1c0,5.1,3.2,11.1,10.9,11.2h1.2v-7.5H25.5z"></path> <path class="st0" d="M13.7,19.6c0.8,3.3,3,6,5.9,7.5l-11.7,0C2.8,27.1,0,22.4,0,16.8V0h7.9v16.8c0,2.2,0,2.9,1.9,2.9H13.7z"></path> <path class="st1" d="M49,25.1h1.1c-0.4,0.5-0.8,0.8-1.3,1.1c-0.5,0.3-1.1,0.5-1.7,0.6C46.5,27,46,27,45.4,27c-1,0-1.8-0.2-2.6-0.5 c-0.8-0.3-1.4-0.7-1.9-1.3c-0.5-0.5-0.7-1.2-0.7-1.9c0-0.7,0.3-1.3,0.7-1.9c0.5-0.5,1.1-1,1.9-1.3c0.8-0.3,1.7-0.5,2.7-0.5 c0.9,0,1.6,0.1,2.3,0.4c0.6,0.2,1.2,0.5,1.6,0.8c0.4,0.3,0.7,0.6,0.8,0.8h-1.1c-0.4-0.4-0.8-0.7-1.3-0.8c-0.5-0.2-0.9-0.3-1.3-0.4 c-0.4-0.1-0.7-0.1-0.9-0.1c-0.8,0-1.5,0.2-2.2,0.4c-0.6,0.3-1.2,0.6-1.5,1.1c-0.4,0.5-0.6,0.9-0.6,1.5c0,0.6,0.2,1.1,0.6,1.5 c0.4,0.4,0.9,0.8,1.6,1.1c0.6,0.3,1.3,0.4,2.1,0.4c0.2,0,0.5,0,0.8-0.1c0.4,0,0.8-0.2,1.3-0.4C48,25.8,48.5,25.5,49,25.1"></path> <path class="st0" d="M51.3,23.4c0-0.7,0.3-1.4,0.8-1.9c0.5-0.5,1.2-1,2-1.3c0.8-0.3,1.7-0.5,2.6-0.5c1,0,1.9,0.2,2.7,0.5 c0.8,0.3,1.5,0.7,2,1.3c0.5,0.5,0.7,1.2,0.8,1.9c0,0.7-0.3,1.3-0.8,1.9c-0.5,0.5-1.1,1-2,1.3c-0.8,0.3-1.7,0.5-2.7,0.5 c-1,0-1.9-0.2-2.7-0.5c-0.8-0.3-1.5-0.8-1.9-1.3C51.5,24.7,51.3,24.1,51.3,23.4 M52.3,23.4c0,0.5,0.2,1,0.6,1.5 c0.4,0.4,0.9,0.8,1.6,1.1c0.7,0.3,1.4,0.4,2.2,0.4c0.8,0,1.5-0.1,2.2-0.4c0.7-0.3,1.2-0.6,1.6-1.1c0.4-0.4,0.6-1,0.6-1.5 c0-0.6-0.2-1.1-0.6-1.5c-0.4-0.5-0.9-0.8-1.6-1.1c-0.7-0.3-1.4-0.4-2.2-0.4c-0.8,0-1.5,0.1-2.2,0.4c-0.7,0.3-1.2,0.6-1.6,1.1 C52.5,22.3,52.3,22.9,52.3,23.4"></path> <polygon class="st1" points="63.8,26.9 63.8,19.9 64.8,19.9 64.8,26.3 69,26.3 69,26.9 "></polygon> <polygon class="st1" points="70.1,26.9 70.1,19.9 71.1,19.9 71.1,26.3 75.3,26.3 75.3,26.9 "></polygon> <polygon class="st1" points="76.3,26.9 76.3,19.9 81.9,19.9 81.9,20.5 77.3,20.5 77.3,23.1 81.7,23.1 81.7,23.7 77.3,23.7 77.3,26.3 81.9,26.3 81.9,26.9 "></polygon> <path class="st1" d="M92.2,25.1h1.1c-0.4,0.5-0.8,0.8-1.3,1.1s-1.1,0.5-1.7,0.6C89.8,27,89.2,27,88.6,27c-1,0-1.8-0.2-2.6-0.5 c-0.8-0.3-1.4-0.7-1.9-1.3c-0.5-0.5-0.7-1.2-0.7-1.9c0-0.7,0.3-1.3,0.7-1.9c0.5-0.5,1.1-1,1.9-1.3c0.8-0.3,1.7-0.5,2.7-0.5 c0.9,0,1.6,0.1,2.3,0.4c0.6,0.2,1.2,0.5,1.6,0.8c0.4,0.3,0.7,0.6,0.8,0.8h-1.1c-0.4-0.4-0.8-0.7-1.3-0.8c-0.5-0.2-0.9-0.3-1.3-0.4 c-0.4-0.1-0.7-0.1-0.9-0.1c-0.8,0-1.5,0.2-2.2,0.4c-0.6,0.3-1.2,0.6-1.5,1.1c-0.4,0.5-0.6,0.9-0.6,1.5c0,0.6,0.2,1.1,0.6,1.5 c0.4,0.4,0.9,0.8,1.6,1.1c0.6,0.3,1.3,0.4,2.1,0.4c0.2,0,0.5,0,0.8-0.1c0.4,0,0.8-0.2,1.3-0.4C91.2,25.8,91.7,25.5,92.2,25.1"></path> <polygon class="st1" points="96.3,26.9 96.3,20.5 94,20.5 94,19.9 99.7,19.9 99.7,20.5 97.3,20.5 97.3,26.9 "></polygon> <rect x="100.8" y="19.9" class="st1" width="1" height="7"></rect> <path class="st0" d="M103.5,23.4c0-0.7,0.3-1.4,0.8-1.9c0.5-0.5,1.2-1,2-1.3c0.8-0.3,1.7-0.5,2.6-0.5c1,0,1.9,0.2,2.7,0.5 c0.8,0.3,1.5,0.7,2,1.3c0.5,0.5,0.7,1.2,0.8,1.9c0,0.7-0.3,1.3-0.8,1.9c-0.5,0.5-1.2,1-2,1.3c-0.8,0.3-1.7,0.5-2.7,0.5 c-1,0-1.9-0.2-2.7-0.5c-0.8-0.3-1.5-0.8-1.9-1.3C103.7,24.7,103.5,24.1,103.5,23.4 M104.5,23.4c0,0.5,0.2,1,0.6,1.5 c0.4,0.4,0.9,0.8,1.6,1.1c0.7,0.3,1.4,0.4,2.2,0.4c0.8,0,1.5-0.1,2.2-0.4c0.7-0.3,1.2-0.6,1.6-1.1c0.4-0.4,0.6-1,0.6-1.5 c0-0.6-0.2-1.1-0.6-1.5c-0.4-0.5-0.9-0.8-1.6-1.1c-0.7-0.3-1.4-0.4-2.2-0.4c-0.8,0-1.5,0.1-2.2,0.4c-0.7,0.3-1.2,0.6-1.6,1.1 C104.7,22.3,104.5,22.9,104.5,23.4"></path> <polygon class="st1" points="115.8,26.9 115.8,19.9 117.2,19.9 122.9,25.7 122.9,25.7 122.9,19.9 123.9,19.9 123.9,26.9 122.9,26.9 116.9,20.7 116.9,20.7 116.9,26.9 "></polygon> <path class="st0" d="M126.4,20.4h0.7c0,0,0.1,0,0.1,0c0.1,0,0.1,0,0.2,0.1c0.1,0,0.1,0.1,0.2,0.1c0.1,0.1,0.1,0.2,0.1,0.3 c0,0.1,0,0.2-0.1,0.3s-0.1,0.1-0.3,0.2v0c0.1,0,0.2,0.1,0.2,0.2c0,0.1,0.1,0.2,0.1,0.3c0,0.1,0,0.2,0,0.2c0,0.1,0,0.1,0,0.1 c0,0,0,0,0,0.1h-0.2c0,0,0-0.1,0-0.1c0,0,0-0.1,0-0.2c0-0.1,0-0.2,0-0.2c0-0.1-0.1-0.1-0.1-0.1c-0.1,0-0.2,0-0.3,0h-0.4v0.8h-0.2 V20.4z M126.6,20.7v0.6h0.4c0,0,0.1,0,0.2,0c0.1,0,0.1,0,0.2-0.1c0.1,0,0.1-0.1,0.1-0.2c0-0.1,0-0.2-0.1-0.2c-0.1,0-0.1-0.1-0.2-0.1 c-0.1,0-0.1,0-0.2,0H126.6z M127.1,19.8c0.3,0,0.5,0.1,0.8,0.2c0.2,0.1,0.4,0.3,0.6,0.6c0.1,0.2,0.2,0.5,0.2,0.8 c0,0.3-0.1,0.6-0.2,0.8c-0.1,0.2-0.3,0.4-0.6,0.6c-0.2,0.1-0.5,0.2-0.8,0.2c-0.3,0-0.6-0.1-0.8-0.2c-0.2-0.1-0.4-0.3-0.6-0.6 c-0.1-0.2-0.2-0.5-0.2-0.8c0-0.3,0.1-0.5,0.2-0.8c0.1-0.2,0.3-0.4,0.6-0.6C126.5,19.8,126.8,19.8,127.1,19.8 M127.1,20 c-0.3,0-0.5,0.1-0.7,0.2c-0.2,0.1-0.4,0.3-0.5,0.5c-0.1,0.2-0.2,0.4-0.2,0.7c0,0.2,0.1,0.5,0.2,0.7s0.3,0.4,0.5,0.5 c0.2,0.1,0.4,0.2,0.7,0.2c0.2,0,0.5-0.1,0.7-0.2c0.2-0.1,0.4-0.3,0.5-0.5c0.1-0.2,0.2-0.4,0.2-0.7c0-0.2-0.1-0.5-0.2-0.7 c-0.1-0.2-0.3-0.4-0.5-0.5C127.5,20,127.3,20,127.1,20"></path> </svg> 