<?xml version="1.0" encoding="UTF-8"?> <!-- Generator: Adobe Illustrator 23.0.1, SVG Export Plug-In . SVG Version: 6.00 Build 0) --> <svg xmlns="http://www.w3.org/2000/svg" xmlns:xlink="http://www.w3.org/1999/xlink" id="Background" x="0px" y="0px" viewBox="0 0 134.7 106.4" style="enable-background:new 0 0 134.7 106.4;" xml:space="preserve"> <style type="text/css"> .st0{fill:none;stroke:#1D1D1B;stroke-miterlimit:3.8637;} .st1{fill:none;stroke:#BBBBBB;stroke-width:3.5575;} .st2{fill:none;stroke:#BBBBBB;stroke-width:3.4877;} .st3{fill:none;stroke:#BBBBBB;stroke-width:3.5285;} .st4{fill-rule:evenodd;clip-rule:evenodd;fill:#F1971D;} .st5{fill-rule:evenodd;clip-rule:evenodd;fill:#FFFFFF;} .st6{fill:#F1971D;} .st7{fill:#1D1D1B;} </style> <line class="st0" x1="13.5" y1="105.9" x2="127.7" y2="105.9"></line> <g> <g> <rect x="65.1" y="33.1" class="st1" width="10.7" height="10.7"></rect> <rect x="33.8" y="1.7" class="st2" width="73.3" height="73.3"></rect> <rect x="41.9" y="9.8" class="st3" width="57.2" height="57.2"></rect> <rect x="49.5" y="17.5" class="st2" width="41.9" height="41.9"></rect> <rect x="57.5" y="25.4" class="st1" width="25.9" height="25.9"></rect> </g> </g> <path class="st4" d="M94.2,37.7c0-8.3,7.5-16.2,20.9-16.2c10.2,0,12.9,2.3,14.3,2.9c2.4,0.8,2.9-1.6,5-1.6V35h-1.1 c0-1.6-0.8-3.4-1.6-5.2c-1.9-4.3-6.5-6.1-10.7-6.8c-4.3-0.5-9.7,0.2-12.8,3.1c-4.8,5.1-4.9,14.5-2.5,20.5c2,4.3,6.6,6.7,13.3,6.7 c11.1,0,14.3-6.5,14.3-10.5h1.4c0,3.1-1.4,6.3-3.8,8.5c-1.4,1.2-5.3,3.8-11.9,3.8C110.6,55.2,94.2,55.7,94.2,37.7z"></path> <path class="st5" d="M97.9,42c0.8,4,4.2,8.6,8.4,10.9c-3.2-0.3-7-3.5-8.6-6.2c-2.5-4.3-3-10.9-0.5-15.4c1.2-1.7,3-4,5-5 C98.6,30.3,97.1,36.5,97.9,42z"></path> <g> <path class="st6" d="M45.2,46.3h-1.3c-0.1,1.6-0.2,4.3-2,4.6c-1.2,0.3-2.4-0.1-2.9-2.3c-0.6-4-0.7-7.5-5.2-9.3 c-2.2-1-3.9-0.9-6.4-1.4c1.3-0.1,12.1-0.3,12.1-7.7c0-6.8-7.9-7.3-11.2-7.3H0v1.4c1.1,0,5.1-0.4,5.1,3.4v21.7 c0,3.2-3.5,2.8-5.1,2.8v1.3h21.3v-1.3c-2,0-6.3,0.3-6.3-2.6V38.8h7.8c7.4,1.2,3.1,10.3,8.5,13.6c3.5,2.1,8.7,2.8,12.4-0.7 C45,50.3,45.4,48.6,45.2,46.3z M21.9,37.5h-7V24.1c0,0,5.8,0,8.1,0c2.2,0,6.4,1.7,6.4,7C29.4,36.3,24.2,37.5,21.9,37.5z"></path> </g> <path class="st5" d="M28.4,24.5c0.8,0.2,4.7,1.8,4.7,6c0,4.2-3.2,5.5-4.1,5.8c0.8-1.1,2-2.8,2-5.6C31.1,27.8,29.4,25.2,28.4,24.5z"></path> <path class="st5" d="M8.5,48.7c0,0,0-19.1,0-21.4c0-2.3-2.1-2.8-3.1-3.1c0.6,0.7,1.1,2.2,1.2,3c0,0,0,20.3,0,21.8 c0,0.8-0.4,2.5-1.2,3.1C6.5,52.3,8.5,51.6,8.5,48.7z"></path> <path class="st4" d="M63.8,40.1c0,4.3,0,5,0,9.4c0,2.9,5.3,2.6,7.4,2.6v1.3h-23v-1.3c1.5,0,5.6,0.4,5.6-2.8c0,1.9,0-17.8,0-21.7 s-4.4-3.4-5.5-3.4v-1.4h28.9c4.5,0,11.6,2,11.6,8.6c0,6.6-7.8,8.7-11.5,8.7C73.6,40.1,63.8,40.1,63.8,40.1L63.8,40.1z M63.8,24.6 v13.9h7c3.9,0,7.1-2.2,7.1-6.8c0-5.2-3.8-7.1-6-7.1C69.6,24.6,63.8,24.6,63.8,24.6z"></path> <path class="st5" d="M76.1,25c2.3,0.4,5.5,2.5,5.5,6.8s-3.2,7-6.8,7.1c2.5-0.7,4.4-4.1,4.4-6.9C79.2,29,77.7,26.1,76.1,25z"></path> <path class="st5" d="M57.2,48.7c0,0,0-19.1,0-21.4c0-2.3-2.1-2.8-3.1-3.1c0.6,0.7,1.1,2.2,1.2,3c0,0,0,20.3,0,21.8 c0,0.8-0.4,2.5-1.2,3.1C55.3,52.3,57.2,51.6,57.2,48.7z"></path> <path class="st5" d="M34.7,52.1c-1.5,0-2.7-1-3.5-1.7c-2.8-3.1-1-8.3-4-10.9C33.7,41.2,30.1,49.2,34.7,52.1z"></path> <g> <path class="st7" d="M15.2,93.5V94c0,2,1.2,2.7,2.3,2.7c1.4,0,2.4-0.6,2.4-2.4c0-3.3-6-2.9-6-7.4c0-2.6,1.7-4.1,3.9-4.1 c2.5,0,3.8,1.3,3.7,4.4h-1.8c0-1.6-0.4-2.7-2.1-2.7c-1,0-2.1,0.6-2.1,2.2c0,3.3,6,2.8,6,7.5c0,3.1-2,4.2-4.2,4.2 c-4,0-4-3.3-3.9-4.8H15.2z"></path> <path class="st7" d="M29.2,83h1.7v9.6c0,3.3,0.9,4.1,2.5,4.1c1.6,0,2.5-0.8,2.5-4.1V83h1.7v9.5c0,4.1-1.4,5.8-4.2,5.8 s-4.2-1.6-4.2-5.8V83z"></path> <path class="st7" d="M45.8,98V83h4c1.8,0,3.7,0.7,3.7,4.3c0,3.4-2.4,4.1-3.8,4.1h-2.3V98H45.8z M47.5,89.7h1.9 c0.7,0,2.4-0.2,2.4-2.5c0-2.3-1.5-2.5-1.9-2.5h-2.4V89.7z"></path> <path class="st7" d="M60.9,98V83h6.9v1.7h-5.2v4.8h4.8v1.7h-4.8v5.2h5.3V98H60.9z"></path> <path class="st7" d="M76.8,91.1V98h-1.7V83h4.6c2.4,0,3.2,1.9,3.2,3.7c0,1.8-0.9,3.1-2.5,3.4v0c1.5,0.3,2.1,0.8,2.2,3.8 c0,0.6,0.2,3,0.5,3.9h-1.8c-0.5-1-0.4-3-0.5-5c-0.1-1.8-1.5-1.9-2-1.9H76.8z M76.8,89.5h2.6c1.2,0,1.8-1.2,1.8-2.5 c0-1.1-0.5-2.3-1.8-2.3h-2.6V89.5z"></path> <path class="st7" d="M90.3,98V83H97v1.7h-5v4.8h4.7v1.7H92V98H90.3z"></path> <path class="st7" d="M103.6,92.5v-4.9c0-3,1.4-4.9,4.2-4.9s4.2,1.9,4.2,4.9v4.9c0,4.1-1.4,5.8-4.2,5.8S103.6,96.7,103.6,92.5z M110.3,92.6v-5c0-3.1-1.9-3.2-2.5-3.2c-0.5,0-2.5,0.1-2.5,3.2v5c0,3.3,0.9,4.1,2.5,4.1S110.3,95.9,110.3,92.6z"></path> <path class="st7" d="M121.3,93.5V94c0,2,1.2,2.7,2.3,2.7c1.4,0,2.4-0.6,2.4-2.4c0-3.3-6-2.9-6-7.4c0-2.6,1.7-4.1,3.9-4.1 c2.5,0,3.8,1.3,3.7,4.4h-1.8c0-1.6-0.4-2.7-2.1-2.7c-1,0-2.1,0.6-2.1,2.2c0,3.3,6,2.8,6,7.5c0,3.1-2,4.2-4.2,4.2 c-4,0-4-3.3-3.9-4.8H121.3z"></path> </g> </svg> 