<?xml version="1.0" encoding="UTF-8"?> <!-- Generator: Adobe Illustrator 23.0.0, SVG Export Plug-In . SVG Version: 6.00 Build 0) --> <svg xmlns="http://www.w3.org/2000/svg" xmlns:xlink="http://www.w3.org/1999/xlink" id="layer" x="0px" y="0px" viewBox="0 0 600 145.7" style="enable-background:new 0 0 600 145.7;" xml:space="preserve"> <style type="text/css"> .st0{fill:#8B034F;} .st1{fill:#F9B000;} </style> <g> <path class="st0" d="M19.1,116.8L29,90l9.4,26.8H19.1z M48,143.8h9.1L33.6,79.2h-9L0,143.8h9.1l7.2-19.8h24.6L48,143.8z M91,130.1 c0,5.3-4.3,8.1-11.6,8.1c-5.9,0-9.8-1.7-12-5.5l-8.7,1.5c3.4,6.9,10.4,10.3,20.4,10.3c13.5,0,20.5-7.5,20.5-15.4 c0-10.2-9.4-13-20.3-15.2c-5.2-1.1-11.4-3-11.4-7.6c0-3.3,3.2-7.1,9.7-7.1c6.6,0,10.5,4.5,11.1,6.3l7.6-3.2 c-3.5-6.7-10.5-9.4-17.9-9.4c-11.3,0-18.9,5.6-18.9,14.5c0,10.1,8.7,12.1,17.1,13.9C84,122.8,91,124.6,91,130.1 M117.7,79.2 l-8.5,3.5v11.9h-7.8v6.9h7.8V133c-0.1,6.4-0.1,11,9.4,11c3.1,0,6.5-0.6,8-0.8v-6.8c-1.6,0.5-3.8,1.1-5.4,1.1 c-3.5,0-3.5-2.5-3.5-8.3v-27.8h8.9v-6.9h-8.9V79.2z M134,94.7v49.1h8.2v-22.6c0-4.2-0.1-9.2,2.1-12.7c2.7-4.4,6.6-6,14.7-6.1v-8.5 c-3.3,0.1-12.1,0.3-16.8,9.6v-8.8L134,94.7L134,94.7z M207.8,79.3v8h36.7l-36.7,48.2v8.4h47.4v-7.7h-37.5l36.5-48.7v-8.1 L207.8,79.3L207.8,79.3z M306.8,94.7v49.1h8.2V116c0-3.6,0-7.4,3.6-11c2.6-2.6,5.7-3.7,9.4-3.7c4.5,0,9.1,2.1,10.5,6.7 c0.5,1.7,0.5,3.1,0.5,8.1v27.7h8.2v-29.1c0-4.2,0-7.1-0.8-10c-2.4-8.1-9.9-11.2-16.1-11.2c-2.9,0-10.7,0.7-15.3,8.7v-7.5 L306.8,94.7L306.8,94.7z M434.7,131.9c-1.7,3.4-5,6.4-11.3,6.4c-5.5,0-14.8-3.5-14.8-19.7c0-4.4,0.8-19.8,14.3-19.8 c6.8,0,10,3.7,11.4,6.9l7.7-3.2c-4.8-7.9-13.3-9.8-19.5-9.8c-15.6,0-23.2,12.6-23.2,26.4c0,12,6.5,25.4,23.9,25.4 c10,0,15.6-4.9,18.7-9.7L434.7,131.9z M267,114.2h26c-0.7-12.8-8.1-15-13.1-15C272.9,99.1,267.9,104.3,267,114.2 M299.8,134.4 c-2.8,4.8-8.2,10.3-18.9,10.3c-14.5,0-22.8-9.8-22.8-26.4c0-18.4,12.2-25.5,22.5-25.5c9,0,17.6,5,20.5,17.3 c0.9,4.1,0.9,7.9,0.9,9.9h-35.2c-0.2,8.2,3.2,18.6,14.8,18.4c4.7-0.1,8.1-2.2,10.2-5.6L299.8,134.4z M360.6,114.2h26 c-0.7-12.8-8.1-15-13.1-15C366.5,99.1,361.5,104.3,360.6,114.2 M393.4,134.4c-2.8,4.8-8.2,10.3-18.9,10.3 c-14.5,0-22.8-9.8-22.8-26.4c0-18.4,12.1-25.5,22.5-25.5c9,0,17.6,5,20.5,17.3c0.9,4.1,0.9,7.9,0.9,9.9h-35.2 c-0.2,8.2,3.2,18.6,14.8,18.4c4.7-0.1,8.1-2.2,10.2-5.6L393.4,134.4z M487,143.8h-8.6c0,0-0.7-3.5-1-7.2c-2.5,2.6-7.1,7.9-16.4,7.9 c-9.5,0-16.6-5.7-16.6-13.9c0-2.6,0.7-5.2,2.2-7.4c2.8-4.2,8-7.5,22.6-8.6l7.8-0.6v-1.2c0-5.1,0-13.6-11-13.6 c-6.9,0-9.2,3.3-10,6.4l-7.6-3.2c0.1-0.3,0.2-0.5,0.4-0.8c2.9-5.4,8.6-8.7,16.9-8.7c4.5,0,10.4,1.1,14.3,4.2 c5.5,4.1,5.3,12.3,5.3,12.3l0.3,25.2C485.7,134.4,485.9,141.7,487,143.8 M475.7,130.3c1.2-2.7,1.3-3.8,1.3-11 c-3.2,0.5-7.5,1.1-12.8,2.3c-9.1,2-10.7,5.4-10.7,8.8c0,3.9,3.1,7.3,9.2,7.3C468.5,137.6,473.4,135.3,475.7,130.3 M201.9,143.8 h-8.6c0,0-0.7-3.5-1-7.2c-2.5,2.6-7.1,7.9-16.4,7.9c-9.5,0-16.6-5.7-16.6-13.9c0-2.6,0.7-5.2,2.2-7.4c2.8-4.2,8-7.5,22.6-8.6 l7.8-0.6v-1.2c0-5.1,0-13.6-10.9-13.6c-6.9,0-9.2,3.3-10,6.4l-7.6-3.2c0.1-0.3,0.3-0.5,0.4-0.8c2.9-5.4,8.6-8.7,16.9-8.7 c4.5,0,10.4,1.1,14.3,4.2c5.5,4.1,5.3,12.3,5.3,12.3l0.3,25.2C200.6,134.4,200.9,141.7,201.9,143.8 M190.7,130.3 c1.2-2.7,1.4-3.8,1.4-11c-3.2,0.5-7.5,1.1-12.8,2.3c-9.1,2-10.7,5.4-10.7,8.8c0,3.9,3.1,7.3,9.2,7.3 C183.4,137.6,188.3,135.3,190.7,130.3"></path> <path class="st1" d="M540.6,102.5c-1.3,0.8-2.6,1.6-3.8,2.5c-14.8-8.2-46.6-24-49.3-25.5c-2.9-1.5-8.1-3.6-7.4-8.5 c0.9-6.9,12.8-21.9,17.9-28.1C525.4,9.4,537.7-1,545.8,0.1c8.7,1.1,13.5,10.1,14.1,52.1c-4.8-1.5-10.2-3-15.9-4.5 c-0.5-6.1-1.6-15.3-2-18.5c-0.5-3.6-1.2-5-2.6-5.1c-1.6-0.2-5.6,3.6-9.3,7.3c-1.7,1.7-6.3,6.4-11.5,11.6c-4.3-0.3-7.2,0.6-8.8,2.7 c-1.3,1.7-1.5,4-0.8,6.9c-2.8,2.8-5.2,5.2-6.7,6.7c-5.7,5.7-11.8,10.4-12.1,12.7c-0.2,1.9,2.6,3.8,6.8,6.3 C507.1,84.4,531.8,97.8,540.6,102.5 M579.1,60.5c-9.7-3.4-33.6-12.3-58.8-15.6c-8.7-1.1-12.2,1.9-8.6,10.2 c3.5,8.2,12.6,21.8,22.2,32.1c9.6,10.3,19.9,13,23.2-2.8c0.1-0.6,0.2-1.1,0.3-1.7c0.8-4.1,1.4-8,1.7-11.4c-4.2-1.9-9-4-13.8-6 c0.3,3.6,0.7,9.9,0.9,14.7c0,0.6,0.1,1.2,0.1,1.8c0.3,7.8-2.4,7.8-6.8,4.6c-5.2-3.7-21-24.6-22.8-33.8c-0.1-0.6,0.2-0.6,0.5-0.5 c0.1,0,0.2,0.1,0.4,0.2l0,0c3.6,1.4,15.5,6.1,27.5,11.2c4.8,2,9.7,4.1,14,6.1c4.3,1.9,8.1,3.7,11,5.3c5.2,2.8,7.2,4.7,5.1,6.9 c-10.9,11-48.8,26.7-61.9,46.1c0,0-0.1,0.1-0.1,0.2c-0.2,0.2-0.3,0.4-0.4,0.7c0,0.1-0.1,0.2-0.1,0.2c-0.6,1.2-1.6,3.3-1.9,5.8 c-0.6,4.2,1.6,8.1,7.7,9.8c1.5,0.5,3.3,0.8,5.2,1c0.3,0,0.7,0.1,1.1,0.1c11.7,0.6,42.1-6.1,51.3-10.2c9.6-4.2,6.7-8.5,3.9-10.6 c-2.1-1.7-12.7-7.6-17.9-10.4c-1.4,0.9-2.5,1.6-3.8,2.5c8.8,5.4,12.2,8,14.3,9.6c0.8,0.6,0.4,1.3-0.8,1.4c-0.3,0-0.6,0-0.9,0.1 c-8.3,0.6-24.1,1.7-31.5,2.1c-1.1,0.1-2.3,0.1-3,0.1c1.8-1.7,3.9-3.3,4.9-4c15.9-11.1,42.3-26.8,50.1-33.6 C597.1,87.5,612.7,72.3,579.1,60.5"></path> </g> </svg> 