<?xml version="1.0" encoding="UTF-8"?> <svg xmlns="http://www.w3.org/2000/svg" viewBox="0 0 676.15 221.11"><defs><style>.cls-1{fill:#009dde;}.cls-2{fill:#329d3b;}.cls-3{fill:#103a63;}</style></defs><title>Resurs 1</title><g id="Lager_2" data-name="Lager 2"><g id="Lager_1-2" data-name="Lager 1"><path class="cls-1" d="M144.37,49.46,160,22.69,151.42,7.83C148.09,2.36,146.24.17,140.68,0c-4.31.26-7,2.91-9,6.4L125.49,17Z"></path><path class="cls-1" d="M125.56,81.67,106.73,49.34,35.83,171.52c-2,3.28-3,8-1,11.49l18.68,33.23c-2.52-4.61-1.36-8.65,1.32-13.47Z"></path><path class="cls-2" d="M250,121.88c1.82-3.51.85-7.45-1.17-10.89L188.21,6.5c-1.89-3.33-4.52-6.5-10-6.5H140.68c5.56.16,7.41,2.34,10.74,7.82L220.26,127H238C243.46,126.92,247.23,126.08,250,121.88Z"></path><path class="cls-2" d="M71.74,0c5.47.18,7.5,2.38,10.81,7.83L152,127h37.57L119.35,6.5c-1.88-3.33-4.52-6.49-10-6.49Z"></path><path class="cls-2" d="M208.84,160.15H171.27l16.29,28h15.89c6.08,0,9.24-1,12.18-5.47h0c2.33-4.11,1.59-8.13-.57-11.81Z"></path><path class="cls-3" d="M238,127H99.08L79.73,160.15H220.19c4.66,0,8.47-1.17,10.64-4.91L250,121.88C247.23,126.08,243.46,126.92,238,127Z"></path><path class="cls-3" d="M53.53,216.24c2.39,3.79,6.1,4.86,10.24,4.86H186.48c5.26,0,8.38-1.48,10.54-5.1l18.63-33.35c-2.94,4.42-6.1,5.47-12.18,5.47h-140l-8.55,14.65C52.17,207.59,51,211.63,53.53,216.24Z"></path><path class="cls-3" d="M19.8,156.3c1.76,2.59,4.66,3.85,9.27,3.85H42.44L61.71,127H30.62l-7.78,13.4-1.39,2.4c-2.69,4.81-4.19,8.86-1.67,13.47Z"></path><path class="cls-1" d="M91.07,22.46,82.56,7.83C79.21,2.33,77.35.15,71.73,0c-4.35.24-7.08,2.89-9.12,6.41L2.12,112.15c-2,3.39-3.12,7.73-.91,11.59l18.57,32.53c-2.53-4.61-1-8.65,1.67-13.47Z"></path><path class="cls-3" d="M291,160.68c14.62,11.71,33.43,16.93,51.74,16.73,29.9-.32,49.24-16.74,49.24-40.49,0-18-9.47-29.09-33-35.57-2.74-.76-18.57-4.88-22.36-5.93-11.6-3.22-15.94-8.35-15.82-15.9.14-8.62,9.43-14.46,21.35-14.23a50.23,50.23,0,0,1,20.18,4.37c13.82,5.81,20.65.72,26.09-10.37-12.21-10.38-27-15.79-46.66-15.58C315,44,296.1,59.86,296.1,82.24c0,18.74,11,29.29,30.72,35.06,4,1.16,17.85,4.72,20,5.24,17.22,4.09,20.46,9.39,20.46,16.82,0,9.32-8.42,16.48-23.42,16.64-9.38.1-17.74-2.37-26.46-6.5C307.87,145,296.58,146.42,291,160.68Z"></path><path class="cls-3" d="M527.39,63.75c-11.29-11-24.64-19.89-49.94-19.89-38,0-66.59,28.79-66.59,67,0,35.89,26.77,66.58,65.68,66.58,21.58,0,39.24-7.59,53.24-23.35l-15.66-15.92c-9.88,10.35-21.07,17-36.85,17-23.48,0-41.06-19-41.06-44.64,0-25.42,17.58-44.28,41.06-44.28a42.39,42.39,0,0,1,22.15,6.1C510,78.69,521,76.47,527.39,63.75Z"></path><path class="cls-3" d="M619.81,45.53h-6.54c-11.81,0-17,1.36-24,17.35L540.33,175.54h24.82l13-30.77H637l12.92,30.77h26.21Zm8.26,77.65h-41l20.61-48.8Z"></path></g></g></svg> 