<?xml version="1.0" encoding="UTF-8"?> <svg xmlns="http://www.w3.org/2000/svg" width="128" height="128" viewBox="0 0 128 128"><defs><style> .cls-1 { fill: #fff; fill-rule: evenodd; } </style></defs><path id="Symbol_-_Beverage_Carton" data-name="Symbol - Beverage Carton" class="cls-1" d="M19.2,72.533a2.133,2.133,0,1,0,0,4.266H36.265a2.133,2.133,0,1,0,0-4.266H19.2Zm23.466-6.4A2.134,2.134,0,0,0,40.532,64H19.2a2.133,2.133,0,1,0,0,4.266H40.532a2.133,2.133,0,0,0,2.133-2.133h0ZM19.2,59.733H32a2.133,2.133,0,1,0,0-4.266H19.2a2.133,2.133,0,1,0,0,4.266h0Zm108.225,0.679a2.131,2.131,0,0,0-1.56-.679H78.932a2.138,2.138,0,0,0-2.127,2.3l0.659,8.533a2.133,2.133,0,1,0,4.254-.329L81.235,64h42.338l-4.109,57.6a2.135,2.135,0,0,1-2.133,2.132H87.465a2.178,2.178,0,0,1-2.138-2.28l-2.8-40.386H115.2a2.134,2.134,0,0,0,0-4.268H80.244a2.136,2.136,0,0,0-2.129,2.281l2.95,42.521a6.408,6.408,0,0,0,6.4,6.4h29.866a6.368,6.368,0,0,0,6.393-6.248l4.267-59.735a2.116,2.116,0,0,0-.567-1.605h0ZM76.8,125.867A2.133,2.133,0,0,1,74.665,128H2.132A2.134,2.134,0,0,1,0,125.867v-89.6a1.83,1.83,0,0,1,.038-0.19,2.29,2.29,0,0,1,.247-0.815,1.639,1.639,0,0,1,.073-0.179L17.066,10.02V2.133A2.134,2.134,0,0,1,19.2,0H70.4a2.133,2.133,0,0,1,2.133,2.133v7.84L89.191,32.88a2.133,2.133,0,0,1,.407,1.253v19.2a2.133,2.133,0,1,1-4.267,0V34.827L69.312,12.8H27.732a2.133,2.133,0,1,1,0-4.266H68.265V4.266H21.332v6.4a2.143,2.143,0,0,1-.358,1.183L6.12,34.133H56.28l7.942-15.886a2.134,2.134,0,0,1,3.819,1.907L61.05,34.133H78.932a2.134,2.134,0,0,1,0,4.267H4.266V90.936c6.383-1.876,21.416-5.139,25.427,4.223A22.313,22.313,0,0,0,49.065,108.8a2.133,2.133,0,1,1,0,4.266A26.323,26.323,0,0,1,25.772,96.84c-2.62-6.112-15.539-3.371-21.506-1.446v28.339h51.2V44.8a2.133,2.133,0,1,1,4.267,0v78.933H74.665a2.133,2.133,0,0,1,2.133,2.134h0Z"></path></svg> 