<?xml version="1.0" encoding="UTF-8"?> <svg xmlns="http://www.w3.org/2000/svg" width="128" height="128" viewBox="0 0 128 128"><defs><style> .cls-1 { fill: #fff; fill-rule: evenodd; } </style></defs><path id="Symbol_-_Car" data-name="Symbol - Car" class="cls-1" d="M100.244,76.9a6.45,6.45,0,1,0,6.4,6.45,6.433,6.433,0,0,0-6.4-6.449h0Zm0,8.6a2.15,2.15,0,1,1,2.133-2.151,2.145,2.145,0,0,1-2.133,2.151h0ZM27.723,76.9a6.45,6.45,0,1,0,6.4,6.45,6.433,6.433,0,0,0-6.4-6.449h0Zm0,8.6a2.15,2.15,0,1,1,2.134-2.151A2.145,2.145,0,0,1,27.723,85.5h0ZM-0.012,79.05V57.55a6.434,6.434,0,0,1,6.4-6.45H46.925V31.75a2.134,2.134,0,1,1,4.267,0V51.1H75.457l3.678-7.411A2.123,2.123,0,0,1,82,42.728a2.155,2.155,0,0,1,.956,2.883L80.227,51.1h7.216a2.15,2.15,0,0,1,0,4.3H51.662l3.755,18.929a2.148,2.148,0,0,1-1.673,2.53,2.115,2.115,0,0,1-.42.041,2.14,2.14,0,0,1-2.091-1.728L47.309,55.4H6.388a2.145,2.145,0,0,0-2.134,2.15V64H6.388a2.15,2.15,0,0,1,0,4.3H4.255V79.05A2.145,2.145,0,0,0,6.388,81.2h1.1a2.15,2.15,0,0,1,0,4.3h-1.1a6.433,6.433,0,0,1-6.4-6.45h0ZM78.909,85.5a2.15,2.15,0,0,0,0-4.3H42.487a15.05,15.05,0,1,0,0,4.3H78.909ZM27.723,94.1A10.751,10.751,0,1,1,38.391,83.349,10.722,10.722,0,0,1,27.723,94.1h0ZM18.349,46.626a2.132,2.132,0,0,0,2.8-1.13L27.5,30.562c1.782-3.589,4.566-5.261,8.76-5.261H66.127c5.182,0,9.97,2.781,13.211,7.742L92.079,50.109c0.559,1.025,3.19,5.29,8.165,5.29h6.4c9.155,0,12.787,5.106,14.2,8.6h-3.533a2.15,2.15,0,0,0,0,4.3H121.9l1.752,10.891a1.5,1.5,0,0,1-.145,1.333,2.407,2.407,0,0,1-1.927.675h-6.571a15.05,15.05,0,1,0,0,4.3h6.571a6.455,6.455,0,0,0,5.306-2.348,5.591,5.591,0,0,0,.935-4.847l-2.015-12.575C124.4,58.658,118.63,51.1,106.644,51.1h-6.4c-2.853,0-4.436-3.078-4.446-3.1a1.956,1.956,0,0,0-.209-0.347L82.826,30.57C78.915,24.577,72.672,21,66.127,21H36.257C30.429,21,26.2,23.57,23.629,28.752l-6.4,15.05a2.157,2.157,0,0,0,1.12,2.824h0Zm81.9,47.474a10.751,10.751,0,1,1,10.667-10.751A10.722,10.722,0,0,1,100.244,94.1h0ZM61.86,59.7a2.15,2.15,0,0,1,0,4.3H59.726a2.15,2.15,0,0,1,0-4.3H61.86ZM34.124,104.85A2.142,2.142,0,0,1,31.99,107H2.121a2.151,2.151,0,0,1,0-4.3H31.99a2.143,2.143,0,0,1,2.133,2.151h0Zm34.136,0A2.141,2.141,0,0,1,66.127,107H44.792a2.151,2.151,0,0,1,0-4.3H66.127a2.142,2.142,0,0,1,2.133,2.151h0Zm59.739,0a2.141,2.141,0,0,1-2.134,2.15H91.729a2.151,2.151,0,0,1,0-4.3h34.136A2.142,2.142,0,0,1,128,104.85h0Zm-42.671,0A2.141,2.141,0,0,1,83.195,107H78.928a2.151,2.151,0,0,1,0-4.3h4.267a2.142,2.142,0,0,1,2.133,2.151h0Z"></path></svg> 