<?xml version="1.0" encoding="UTF-8"?> <svg xmlns="http://www.w3.org/2000/svg" width="128" height="128" viewBox="0 0 128 128"><defs><style> .cls-1 { fill: #fff; fill-rule: evenodd; } </style></defs><path class="cls-1" d="M74.6,65.917c-3.332.129-6.891,0.194-10.58,0.194-13.862,0-22.281-.92-26.354-1.533L49.535,45.927a2.133,2.133,0,1,0-3.6-2.291L32.363,64.965a2.134,2.134,0,0,0,1.283,3.215c0.358,0.09,9.031,2.2,30.374,2.2,3.743,0,7.358-.066,10.747-0.2A2.133,2.133,0,0,0,74.6,65.917ZM40.686,36.972a2.137,2.137,0,0,0,1.333,1.3c0.275,0.091,6.9,2.242,22,2.242q2.3,0,4.332-.063a2.133,2.133,0,1,0-.133-4.264q-1.974.06-4.2,0.061a97.087,97.087,0,0,1-17.942-1.391L65.828,3.253A2.132,2.132,0,1,0,62.212.993L40.885,35.12A2.13,2.13,0,0,0,40.686,36.972ZM23.5,123.7H2.173a2.133,2.133,0,0,0,0,4.266H23.5A2.133,2.133,0,0,0,23.5,123.7Zm49.051,0h-12.8V102.33c1.383,0.023,2.788.042,4.265,0.042a2.133,2.133,0,0,0,0-4.267c-19.4,0-30.355-2.132-34.968-3.326l13.1-18.922a2.133,2.133,0,1,0-3.507-2.429L23.878,94.758a2.133,2.133,0,0,0,.962,3.2c0.4,0.16,9.126,3.528,30.649,4.268V123.7h-6.4v-16a2.133,2.133,0,0,0-4.265,0v16H36.3V106.637a2.132,2.132,0,0,0-2.045-2.131,183.9,183.9,0,0,1-28.516-3.533L23.583,75.189A2.133,2.133,0,0,0,22,71.848c-3.432-.28-6.015-0.607-7.793-0.875L30.48,45.4a2.133,2.133,0,0,0-1.589-3.268c-2.691-.268-4.78-0.6-6.267-0.885L40.575,12.523l3.6,5.674a2.132,2.132,0,1,0,3.6-2.286L42.36,7.378a2.129,2.129,0,0,0-1.8-.989H40.552a2.132,2.132,0,0,0-1.8,1L17.426,41.519a2.131,2.131,0,0,0,1.168,3.165,44.3,44.3,0,0,0,6.467,1.287L8.9,71.365a2.134,2.134,0,0,0,1.3,3.219A68.066,68.066,0,0,0,18,75.756l-17.582,25.4a2.133,2.133,0,0,0,1.243,3.285,179.574,179.574,0,0,0,30.368,4.23V123.7H29.9a2.133,2.133,0,0,0,0,4.266H72.551A2.133,2.133,0,0,0,72.551,123.7ZM126.217,19.157a2.133,2.133,0,0,0,1.783-2.1V8.521a2.132,2.132,0,0,0-2.133-2.132H74.683a2.133,2.133,0,0,0,0,4.266h49.051v4.592l-36.6,6.1a2.133,2.133,0,0,0-1.783,2.1V110.9a2.132,2.132,0,0,0,1.67,2.082l36.717,8.161V123.7H78.949a2.133,2.133,0,0,0,0,4.266h46.918A2.133,2.133,0,0,0,128,125.834v-6.4a2.132,2.132,0,0,0-1.67-2.082l-36.718-8.161V25.26Z"></path></svg> 