<?xml version="1.0" encoding="UTF-8"?> <svg xmlns="http://www.w3.org/2000/svg" width="128" height="128" viewBox="0 0 128 128"><defs><style> .cls-1 { fill: #fff; fill-rule: evenodd; } </style></defs><path id="Symbol_-_Pill" data-name="Symbol - Pill" class="cls-1" d="M16.732,85.465a2.128,2.128,0,0,0-2.72,1.3A21.4,21.4,0,0,0,14.1,101.2,2.133,2.133,0,1,0,18.1,99.738a17.159,17.159,0,0,1-.07-11.552,2.133,2.133,0,0,0-1.3-2.721M93.867,0a34.1,34.1,0,0,0-24.16,9.975L45.732,33.968a2.133,2.133,0,0,0,3.019,3.016L72.719,13a29.882,29.882,0,0,1,42.266,42.253,0.115,0.115,0,0,1-.022.021c-0.552.559-22.346,22.342-28.339,28.332L42.884,39.834a2.132,2.132,0,0,0-3.019,0L11.277,68.446c-0.463.466-.9,0.9-1.242,1.325L10,69.732a34.127,34.127,0,1,0,48.484,48.039L82.266,94a2.134,2.134,0,0,0-3.017-3.018l-23.8,23.787A29.86,29.86,0,1,1,13.013,72.749l0.032-.034C13.621,72.132,31,54.735,41.374,44.358L85.156,88.175h0a2.132,2.132,0,0,0,3.017,0,2.173,2.173,0,0,0,.318-0.4l28.226-28.217c0.465-.467.9-0.9,1.244-1.325L118,58.268A34.131,34.131,0,0,0,93.867,0m9.657,20.059a2.133,2.133,0,0,1,2.417-3.516A21.345,21.345,0,0,1,115.2,34.133a2.134,2.134,0,1,1-4.267,0,17.08,17.08,0,0,0-7.409-14.073"></path></svg> 