<?xml version="1.0" encoding="UTF-8"?> <svg xmlns="http://www.w3.org/2000/svg" width="128" height="128" viewBox="0 0 128 128"><defs><style> .cls-1 { fill: #fff; fill-rule: evenodd; } </style></defs><path id="Symbol_-_Package" data-name="Symbol - Package" class="cls-1" d="M81.068,104.534a2.135,2.135,0,0,0,2.133,2.135h21.334a2.134,2.134,0,1,0,0-4.267H83.2a2.133,2.133,0,0,0-2.133,2.132h0Zm19.2-10.666H83.2a2.134,2.134,0,0,0,0,4.267h17.067a2.134,2.134,0,1,0,0-4.267h0Zm-8.533-25.6H36.265a2.134,2.134,0,0,0,0,4.267H91.735a2.134,2.134,0,1,0,0-4.267h0ZM77.424,43.29l-8.532,8.534a2.133,2.133,0,0,0,3.017,3.017L76.8,49.949V61.867a2.133,2.133,0,0,0,4.267,0V49.949l4.892,4.892a2.133,2.133,0,0,0,3.017-3.017L80.445,43.29a2.192,2.192,0,0,0-.7-0.46,2.133,2.133,0,0,0-1.63,0,2.193,2.193,0,0,0-.7.46h0ZM49.066,64A2.134,2.134,0,0,0,51.2,61.867V49.949l4.892,4.892a2.133,2.133,0,1,0,3.017-3.017L50.576,43.29a2.192,2.192,0,0,0-.7-0.46,2.133,2.133,0,0,0-1.63,0,2.193,2.193,0,0,0-.7.46l-8.532,8.534a2.133,2.133,0,0,0,3.017,3.017l4.892-4.892V61.867A2.134,2.134,0,0,0,49.066,64h0ZM28.525,99.637l20.609,5.522a2.171,2.171,0,0,0,.555.074,2.135,2.135,0,0,0,.55-4.2L29.63,95.515a2.134,2.134,0,0,0-1.105,4.122h0Zm2.208-8.243,20.609,5.519a2.163,2.163,0,0,0,.555.072,2.133,2.133,0,0,0,.55-4.194L31.838,87.271a2.134,2.134,0,0,0-1.105,4.122h0Zm29-1.065L26.763,81.49,21.237,102.1l32.972,8.836Zm3.7-2.133a4.234,4.234,0,0,1,.42,3.243l-5.519,20.6a4.261,4.261,0,0,1-5.223,3.017l-32.977-8.836A4.268,4.268,0,0,1,17.116,101l5.526-20.608a4.332,4.332,0,0,1,5.22-3.022l32.975,8.839A4.247,4.247,0,0,1,63.43,88.2h0ZM128,10.664V117.336A10.68,10.68,0,0,1,117.336,128H10.664A10.681,10.681,0,0,1,0,117.336V10.664A10.68,10.68,0,0,1,10.664,0h64A2.134,2.134,0,0,1,76.8,2.13V32a2.133,2.133,0,0,1-3.232,1.828L64,28.085l-9.568,5.741A2.133,2.133,0,0,1,51.2,32V10.664a2.133,2.133,0,0,1,4.267,0V28.231L62.9,23.77a2.126,2.126,0,0,1,2.2,0l7.435,4.461V4.263H10.664a6.409,6.409,0,0,0-6.4,6.4V117.336a6.408,6.408,0,0,0,6.4,6.4H117.336a6.407,6.407,0,0,0,6.4-6.4V10.664a6.408,6.408,0,0,0-6.4-6.4H83.2A2.133,2.133,0,1,1,83.2,0h34.135A10.679,10.679,0,0,1,128,10.664h0Z"></path></svg> 