<svg version="1.1" id="Layer_1" xmlns="http://www.w3.org/2000/svg" xmlns:xlink="http://www.w3.org/1999/xlink" x="0px" y="0px" viewBox="0 0 199.17 150.01" style="enable-background:new 0 0 199.17 150.01;" xml:space="preserve">
<style type="text/css">
	.st0{fill:#1F284B;}
</style>
<path class="st0" d="M47.62,150.01C16.9,150.01,0,124.41,0,98.3C0,27.65,50.18,2.56,83.97,0v34.82
	c-17.92,2.05-41.98,15.87-43.52,39.42c1.02-0.51,6.14-2.56,11.26-2.56c25.6,0,39.94,16.38,39.94,38.91
	C91.65,132.09,73.22,150.01,47.62,150.01z M155.13,150.01c-30.72,0-47.1-25.6-47.1-51.71c0-70.66,49.66-95.74,83.46-98.3v34.82
	c-17.92,2.05-41.98,15.87-43.52,39.42c1.02-0.51,6.14-2.56,11.26-2.56c25.6,0,39.94,16.38,39.94,38.91
	C199.17,132.09,180.73,150.01,155.13,150.01z"/>
</svg>
