<?xml version="1.0" encoding="UTF-8"?> <svg xmlns="http://www.w3.org/2000/svg" xmlns:xlink="http://www.w3.org/1999/xlink" width="29" height="30" viewBox="0 0 29 30"><defs><path id="a" d="M0 0h28.5v29.998H0z"></path></defs><g fill="none" fill-rule="evenodd"><path fill="none" d="M-4-3h36v36H-4z"></path><g><mask id="b" fill="#fff"><use xlink:href="#a"></use></mask><path fill="#FFF" d="M15.001 28.09V13.233l12-5.334v14.857l-12 5.334zM1.501 7.9l12 5.334V28.09l-12-5.334V7.9zm12.75-6.335l11.654 5.181-11.654 5.18-11.653-5.18 11.653-5.18zm14.247 5.114c0-.008-.001-.013-.003-.021-.001-.018-.004-.033-.007-.048l-.005-.022a.666.666 0 0 0-.015-.059c-.003-.009-.004-.016-.007-.022l-.015-.04a.116.116 0 0 0-.01-.024l-.02-.037-.01-.02-.03-.052-.013-.017-.028-.037c-.005-.003-.01-.01-.012-.015-.012-.015-.026-.027-.04-.042a.336.336 0 0 0-.053-.048.656.656 0 0 0-.069-.053l-.04-.023-.016-.01c-.016-.01-.033-.018-.05-.025l-.01-.004h-.003L14.556.063a.767.767 0 0 0-.61 0L.46 6.059H.457l-.01.004-.05.026-.015.008-.042.024-.018.012-.039.03-.013.011a.323.323 0 0 0-.048.043l-.003.004c-.015.014-.029.028-.04.043l-.013.015-.028.037-.012.017a.693.693 0 0 0-.032.053l-.009.019-.02.039c-.002.008-.007.016-.01.026l-.015.038c-.003.008-.004.017-.007.023a.837.837 0 0 0-.015.059l-.005.022a.404.404 0 0 0-.007.048l-.003.021A.971.971 0 0 0 0 6.747v16.5a.75.75 0 0 0 .445.687l13.5 6h.005c.02.009.039.017.06.022a.045.045 0 0 1 .012.006c.022.008.046.014.07.02a.75.75 0 0 0 .312.002s.003 0 .003-.002a.542.542 0 0 0 .143-.048h.004l13.5-6a.75.75 0 0 0 .446-.687v-16.5a.971.971 0 0 0-.003-.066l.001-.003z" mask="url(#b)"></path></g></g></svg> 