<?xml version="1.0" encoding="UTF-8"?> <svg xmlns="http://www.w3.org/2000/svg" xmlns:xlink="http://www.w3.org/1999/xlink" width="23" height="31" viewBox="0 0 23 31"><defs><path id="a" d="M0 0h22.5v30.018H0z"></path></defs><g fill="none" fill-rule="evenodd"><path fill="none" d="M-7-2h36v36H-7z"></path><g><mask id="b" fill="#fff"><use xlink:href="#a"></use></mask><path fill="#FFF" d="M11.247 28.515c-6.834 0-9.75-2.02-9.75-6.75 0-4.488 2.919-7.712 5.049-10.067 1.035-1.143 1.86-2.055 2.229-2.92.636.147 1.437.237 2.472.237s1.836-.09 2.472-.237c.369.865 1.194 1.777 2.228 2.92 2.131 2.355 5.049 5.579 5.049 10.067 0 4.73-2.916 6.75-9.75 6.75h.001zM6.414 2.266c.514-.372 1.214-.76 1.84-.766h.016c.566 0 1.213.328 1.899.676.813.413 1.652.839 2.578.839 1.215 0 1.595-.765 1.797-1.175.162-.327.168-.34.453-.34.55 0 .97.327 1.238.625-2.069 1.844-2.569 4.122-2.688 5.156-.539.147-1.265.235-2.3.235s-1.761-.088-2.3-.235c-.116-1.008-.595-3.197-2.533-5.013v-.002zM20.596 15.22c-1.073-1.805-2.439-3.315-3.537-4.527-.808-.896-1.639-1.812-1.936-2.45.497-.29.834-.627 1.155-.946a.75.75 0 1 0-.942-1.157 6.713 6.713 0 0 1 2.363-3.273.75.75 0 0 0 .221-.933C17.881 1.853 16.942 0 14.998 0c-1.214 0-1.594.765-1.796 1.174-.162.327-.168.34-.454.34-.566 0-1.213-.328-1.898-.676C10.037.426 9.197 0 8.27 0h-.03C6.486.018 4.895 1.56 4.719 1.734A.754.754 0 0 0 4.8 2.866a6.651 6.651 0 0 1 2.34 3.212c.008.02.014.04.021.061a.75.75 0 0 0-.94 1.158c.319.32.657.657 1.154.948-.295.636-1.128 1.554-1.938 2.45-1.098 1.213-2.464 2.722-3.537 4.527C.624 17.372 0 19.513 0 21.768c0 3.069 1.133 5.304 3.365 6.643 1.826 1.097 4.333 1.607 7.885 1.607 3.552 0 6.058-.51 7.886-1.607 2.232-1.34 3.364-3.574 3.364-6.643 0-2.255-.621-4.397-1.9-6.546l-.004-.003z" mask="url(#b)"></path></g></g></svg> 