<?xml version="1.0" encoding="UTF-8"?> <svg xmlns="http://www.w3.org/2000/svg" xmlns:xlink="http://www.w3.org/1999/xlink" width="19" height="27" viewBox="0 0 19 27"><defs><path id="a" d="M0 0h18.692v26.997H0z"></path></defs><g fill="none" fill-rule="evenodd"><path fill="#D8D8D8" fill-opacity="0" d="M-8-5h36v36H-8z"></path><g><mask id="b" fill="#fff"><use xlink:href="#a"></use></mask><path fill="#FFF" d="M.984 22.497V6.649c.483.464 1.145.875 1.968 1.224 1.715.727 3.986 1.125 6.393 1.125 2.41 0 4.679-.4 6.393-1.124.825-.35 1.485-.761 1.968-1.224v15.847H.984zm16.722 0c0 .34-.465 1.18-2.232 1.929v.002c-1.63.69-3.807 1.07-6.129 1.07-2.322 0-4.498-.38-6.129-1.07-1.765-.749-2.232-1.59-2.232-1.931h16.722zM3.216 2.57c1.63-.69 3.807-1.071 6.13-1.071 2.321 0 4.498.38 6.128 1.07 1.767.749 2.232 1.589 2.232 1.93 0 .34-.465 1.18-2.232 1.929-1.63.69-3.807 1.07-6.129 1.07-2.322 0-4.498-.38-6.129-1.07C1.451 5.679.984 4.838.984 4.498c0-.34.467-1.18 2.232-1.929zm14.558-.158c-.49-.489-1.175-.922-2.036-1.287C14.024.399 11.754 0 9.345 0 6.938 0 4.667.4 2.952 1.125c-.862.365-1.546.798-2.035 1.287C.309 3.022 0 3.723 0 4.499v18c0 .775.31 1.477.917 2.086.489.489 1.174.922 2.035 1.287 1.715.726 3.986 1.125 6.393 1.125 2.41 0 4.679-.4 6.393-1.127.863-.364 1.547-.797 2.036-1.287.609-.608.918-1.31.918-2.086v-18c0-.776-.31-1.478-.918-2.087v.002z" mask="url(#b)"></path></g></g></svg> 