<?xml version="1.0" encoding="UTF-8"?> <svg xmlns="http://www.w3.org/2000/svg" xmlns:xlink="http://www.w3.org/1999/xlink" width="29" height="27" viewBox="0 0 29 27"><defs><path id="a" d="M0 0h28.5v26.997H0z"></path></defs><g fill="none" fill-rule="evenodd"><path fill="none" d="M-4-5h36v36H-4z"></path><g><mask id="b" fill="#fff"><use xlink:href="#a"></use></mask><path fill="#FFF" d="M23.596 12.428c-2.487.69-5.805 1.07-9.345 1.07-3.542 0-6.861-.38-9.347-1.07-2.692-.749-3.403-1.589-3.403-1.93V6.65c.738.463 1.746.874 3.001 1.224 2.615.726 6.075 1.125 9.749 1.125 3.672 0 7.132-.4 9.747-1.125 1.255-.35 2.265-.76 3.003-1.224v3.849c0 .34-.711 1.18-3.405 1.929zm0 6c-2.487.69-5.805 1.07-9.345 1.07-3.542 0-6.861-.38-9.347-1.07-2.692-.749-3.403-1.589-3.403-1.93V12.65c.738.463 1.746.874 3.001 1.224 2.615.726 6.075 1.125 9.749 1.125 3.672 0 7.132-.4 9.747-1.125 1.255-.35 2.265-.76 3.003-1.224v3.849c0 .34-.711 1.18-3.405 1.929zm0 6c-2.487.69-5.805 1.07-9.345 1.07-3.542 0-6.861-.38-9.347-1.07-2.692-.749-3.403-1.589-3.403-1.93V18.65c.738.463 1.746.874 3.001 1.224 2.615.726 6.075 1.125 9.749 1.125 3.672 0 7.132-.4 9.747-1.127 1.255-.35 2.265-.76 3.003-1.224v3.85c0 .34-.711 1.18-3.405 1.928v.002zM4.904 2.57c2.487-.69 5.805-1.071 9.347-1.071 3.54 0 6.86.38 9.345 1.07C26.288 3.32 27 4.16 27 4.5c0 .34-.711 1.18-3.405 1.929-2.487.69-5.805 1.07-9.345 1.07-3.542 0-6.861-.38-9.347-1.07-2.692-.749-3.403-1.589-3.403-1.93 0-.34.71-1.18 3.403-1.928zm22.197-.158c-.745-.489-1.79-.922-3.103-1.287C21.383.4 17.923 0 14.25 0c-3.674 0-7.134.4-9.749 1.125-1.314.365-2.36.798-3.103 1.287C.472 3.022 0 3.723 0 4.5v18c0 .775.47 1.477 1.398 2.086.745.49 1.79.923 3.103 1.287 2.615.726 6.075 1.125 9.749 1.125 3.672 0 7.132-.4 9.747-1.126 1.315-.365 2.36-.798 3.103-1.287.927-.61 1.4-1.311 1.4-2.087v-18c0-.775-.473-1.477-1.4-2.086v.001z" mask="url(#b)"></path></g></g></svg> 