<?xml version="1.0" encoding="UTF-8"?> <svg xmlns="http://www.w3.org/2000/svg" xmlns:xlink="http://www.w3.org/1999/xlink" width="30" height="23" viewBox="0 0 30 23"><defs><path id="a" d="M0 0h30v13.8H0z"></path><path id="c" d="M0 10.733h30V18.4H0z"></path><path id="e" d="M0 15.333h30V23H0z"></path></defs><g fill="none" fill-rule="evenodd"><path fill="#D8D8D8" fill-opacity="0" d="M-3-6h36v36H-3z"></path><g><mask id="b" fill="#fff"><use xlink:href="#a"></use></mask><path fill="#FFF" d="M2.682 6.9L15 12.2l12.318-5.3L15 1.599l-12.318 5.3zM15 13.8a.738.738 0 0 1-.29-.06L.46 7.607A.769.769 0 0 1 0 6.9c0-.309.182-.588.46-.707L14.71.059a.738.738 0 0 1 .581 0l14.25 6.134c.278.12.46.398.46.707a.769.769 0 0 1-.46.707l-14.25 6.133a.738.738 0 0 1-.29.06z" mask="url(#b)"></path><mask id="d" fill="#fff"><use xlink:href="#c"></use></mask><path fill="#FFF" d="M15 18.4a.738.738 0 0 1-.29-.06L.46 12.207a.774.774 0 0 1-.401-1.005c.16-.39.6-.573.982-.41l13.96 6.008 13.958-6.007a.744.744 0 0 1 .983.41.773.773 0 0 1-.4 1.004l-14.25 6.133a.738.738 0 0 1-.292.06" mask="url(#d)"></path><mask id="f" fill="#fff"><use xlink:href="#e"></use></mask><path fill="#FFF" d="M15 23a.738.738 0 0 1-.29-.06L.46 16.807a.774.774 0 0 1-.401-1.005c.16-.39.6-.573.982-.41l13.96 6.008 13.958-6.007a.744.744 0 0 1 .983.41.773.773 0 0 1-.4 1.004l-14.25 6.133A.738.738 0 0 1 15 23" mask="url(#f)"></path></g></g></svg> 